<svg xmlns="http://www.w3.org/2000/svg" width="24" height="24" viewBox="0 0 24 24" fill="none">
  <g clip-path="url(#clip0_51_1396)">
    <mask id="mask0_51_1396" style="mask-type:luminance" maskUnits="userSpaceOnUse" x="0" y="0" width="24" height="24">
      <path d="M24 0H0V24H24V0Z" fill="white"/>
    </mask>
    <g mask="url(#mask0_51_1396)">
      <mask id="mask1_51_1396" style="mask-type:luminance" maskUnits="userSpaceOnUse" x="0" y="0" width="24" height="24">
        <path d="M24 0H0V24H24V0Z" fill="white"/>
      </mask>
      <g mask="url(#mask1_51_1396)">
        <path d="M12.1038 -7.25717e-05C5.39344 -0.0552726 -0.0557609 5.39393 -0.000560853 12.1043C0.0558391 18.6203 5.37904 23.9447 11.8938 23.9987C18.6042 24.0563 24.0558 18.6047 23.9982 11.8943C23.9442 5.38073 18.6198 0.0563274 12.1038 -7.25717e-05ZM8.51584 5.97233C9.28384 6.94793 9.74344 8.18273 9.74344 9.52193C9.74344 10.6823 9.39904 11.7623 8.80744 12.6635H4.64704L8.51464 5.97113L8.51584 5.97233ZM21.1998 13.2827V14.1467C21.1998 14.2031 21.1698 14.2511 21.1182 14.2727C20.8362 14.3927 19.9062 14.8247 19.5186 15.3623C18.5202 16.7519 17.7582 18.9359 16.0542 18.9359H8.94424C6.42664 18.9359 4.32064 16.9379 4.32184 14.2763C4.32184 14.2103 4.37824 14.1563 4.44424 14.1563H7.81384C7.93024 14.1563 8.02144 14.2499 8.02144 14.3639V15.0143C8.02144 15.3599 8.30104 15.6407 8.64784 15.6407H11.2038V14.1527H9.45784C10.4622 12.8807 11.0598 11.2751 11.0598 9.52673C11.0598 7.57673 10.3122 5.79833 9.08824 4.46873C9.82864 4.55513 10.5366 4.70273 11.2038 4.89833V4.48433C11.2038 4.05473 11.5518 3.70673 11.9814 3.70673C12.411 3.70673 12.759 4.05473 12.759 4.48433V5.48273C15.1446 6.59633 16.707 8.44433 16.707 10.5347C16.707 11.7611 16.1706 12.9023 15.2454 13.8623C15.0678 14.0459 14.8218 14.1503 14.5638 14.1503H12.7602V15.6359H15.0246C15.513 15.6359 16.389 14.7095 16.8042 14.1515C16.8042 14.1515 16.8222 14.1239 16.8702 14.1095C16.9182 14.0951 21.0282 13.1519 21.0282 13.1519C21.1146 13.1279 21.1998 13.1939 21.1998 13.2815V13.2827Z" fill="#1E1E1E"/>
      </g>
    </g>
  </g>
  <defs>
    <clipPath id="clip0_51_1396">
      <rect width="24" height="24" fill="white"/>
    </clipPath>
  </defs>
</svg>