<svg xmlns="http://www.w3.org/2000/svg" width="24" height="24" viewBox="0 0 24 24" fill="none">
<path d="M18.9419 5.88483C17.6472 5.31576 16.2629 4.90215 14.8158 4.66667C14.638 4.96857 14.4303 5.37462 14.2872 5.69765C12.7487 5.48029 11.2244 5.48029 9.71429 5.69765C9.57116 5.37462 9.35876 4.96857 9.17947 4.66667C7.73067 4.90215 6.34479 5.31726 5.05016 5.88785C2.43887 9.59517 1.73099 13.2104 2.08493 16.7743C3.81688 17.9895 5.49534 18.7276 7.14548 19.2106C7.55291 18.6838 7.91628 18.1238 8.22933 17.5336C7.63314 17.3207 7.06211 17.0581 6.52255 16.7532C6.6657 16.6536 6.8057 16.5494 6.94099 16.4422C10.2319 17.8883 13.8074 17.8883 17.059 16.4422C17.1958 16.5494 17.3358 16.6536 17.4774 16.7532C16.9362 17.0596 16.3637 17.3222 15.7674 17.5351C16.0805 18.1238 16.4423 18.6853 16.8513 19.2121C18.503 18.7291 20.183 17.991 21.915 16.7743C22.3303 12.6428 21.2055 9.0608 18.9419 5.88483ZM8.67765 14.5825C7.68977 14.5825 6.87963 13.7161 6.87963 12.661C6.87963 11.6058 7.67246 10.7379 8.67765 10.7379C9.68285 10.7379 10.4929 11.6043 10.4756 12.661C10.4773 13.7161 9.68285 14.5825 8.67765 14.5825ZM15.3223 14.5825C14.3344 14.5825 13.5242 13.7161 13.5242 12.661C13.5242 11.6058 14.3171 10.7379 15.3223 10.7379C16.3274 10.7379 17.1376 11.6043 17.1203 12.661C17.1203 13.7161 16.3274 14.5825 15.3223 14.5825Z" fill="#1E1E1E"/>
</svg>